<svg xmlns="http://www.w3.org/2000/svg" width="154" height="134" fill="none"><path fill="#A7A7CA" d="M33.154 6.02a3.01 3.01 0 0 0 3.014-3.01c0-1.663-1.35-3.01-3.014-3.01a3.01 3.01 0 0 0-3.014 3.01c0 1.662 1.35 3.01 3.014 3.01M33.154 31.673a3.01 3.01 0 0 0 3.014-3.01c0-1.662-1.35-3.01-3.014-3.01a3.01 3.01 0 0 0-3.014 3.01c0 1.662 1.35 3.01 3.014 3.01M33.154 57.47a3.01 3.01 0 0 0 3.014-3.01c0-1.662-1.35-3.01-3.014-3.01a3.01 3.01 0 0 0-3.014 3.01c0 1.662 1.35 3.01 3.014 3.01M33.154 83.266a3.01 3.01 0 0 0 3.014-3.01c0-1.662-1.35-3.009-3.014-3.009a3.01 3.01 0 0 0-3.014 3.01c0 1.662 1.35 3.01 3.014 3.01M33.154 108.203a3.01 3.01 0 0 0 3.014-3.009c0-1.663-1.35-3.01-3.014-3.01a3.01 3.01 0 0 0-3.014 3.01 3.01 3.01 0 0 0 3.014 3.009M33.154 134a3.01 3.01 0 0 0 3.014-3.01 3.01 3.01 0 0 0-3.014-3.009 3.01 3.01 0 0 0-3.014 3.009c0 1.663 1.35 3.01 3.014 3.01M3.014 6.02a3.01 3.01 0 0 0 3.014-3.01C6.028 1.347 4.678 0 3.014 0A3.01 3.01 0 0 0 0 3.01c0 1.662 1.35 3.01 3.014 3.01M3.014 31.673a3.01 3.01 0 0 0 3.014-3.01c0-1.662-1.35-3.01-3.014-3.01A3.01 3.01 0 0 0 0 28.664c0 1.662 1.35 3.01 3.014 3.01M3.014 57.47a3.01 3.01 0 0 0 3.014-3.01c0-1.662-1.35-3.01-3.014-3.01A3.01 3.01 0 0 0 0 54.46c0 1.662 1.35 3.01 3.014 3.01M3.014 83.266a3.01 3.01 0 0 0 3.014-3.01c0-1.662-1.35-3.009-3.014-3.009A3.01 3.01 0 0 0 0 80.257c0 1.662 1.35 3.01 3.014 3.01M3.014 108.203a3.01 3.01 0 0 0 3.014-3.009c0-1.663-1.35-3.01-3.014-3.01A3.01 3.01 0 0 0 0 105.194a3.01 3.01 0 0 0 3.014 3.009M3.014 134a3.01 3.01 0 0 0 3.014-3.01 3.01 3.01 0 0 0-3.014-3.009A3.01 3.01 0 0 0 0 130.99c0 1.663 1.35 3.01 3.014 3.01M91.998 6.02a3.01 3.01 0 0 0 3.014-3.01c0-1.663-1.35-3.01-3.014-3.01a3.01 3.01 0 0 0-3.014 3.01c0 1.662 1.35 3.01 3.014 3.01M91.998 31.673a3.01 3.01 0 0 0 3.014-3.01c0-1.662-1.35-3.01-3.014-3.01a3.01 3.01 0 0 0-3.014 3.01c0 1.662 1.35 3.01 3.014 3.01M91.998 57.47a3.01 3.01 0 0 0 3.014-3.01c0-1.662-1.35-3.01-3.014-3.01a3.01 3.01 0 0 0-3.014 3.01c0 1.662 1.35 3.01 3.014 3.01M91.998 83.266a3.01 3.01 0 0 0 3.014-3.01c0-1.662-1.35-3.009-3.014-3.009a3.01 3.01 0 0 0-3.014 3.01c0 1.662 1.35 3.01 3.014 3.01M91.998 108.203a3.01 3.01 0 0 0 3.014-3.009c0-1.663-1.35-3.01-3.014-3.01a3.01 3.01 0 0 0-3.014 3.01 3.01 3.01 0 0 0 3.014 3.009M91.998 134a3.01 3.01 0 0 0 3.014-3.01 3.01 3.01 0 0 0-3.014-3.009 3.01 3.01 0 0 0-3.014 3.009c0 1.663 1.35 3.01 3.014 3.01M61.858 6.02a3.01 3.01 0 0 0 3.014-3.01c0-1.663-1.35-3.01-3.014-3.01a3.01 3.01 0 0 0-3.014 3.01c0 1.662 1.35 3.01 3.014 3.01M61.858 31.673a3.01 3.01 0 0 0 3.014-3.01c0-1.662-1.35-3.01-3.014-3.01a3.01 3.01 0 0 0-3.014 3.01c0 1.662 1.35 3.01 3.014 3.01M61.858 57.47a3.01 3.01 0 0 0 3.014-3.01c0-1.662-1.35-3.01-3.014-3.01a3.01 3.01 0 0 0-3.014 3.01c0 1.662 1.35 3.01 3.014 3.01M61.858 83.266a3.01 3.01 0 0 0 3.014-3.01c0-1.662-1.35-3.009-3.014-3.009a3.01 3.01 0 0 0-3.014 3.01c0 1.662 1.35 3.01 3.014 3.01M61.858 108.203a3.01 3.01 0 0 0 3.014-3.009c0-1.663-1.35-3.01-3.014-3.01a3.01 3.01 0 0 0-3.014 3.01 3.01 3.01 0 0 0 3.014 3.009M61.858 134a3.01 3.01 0 0 0 3.014-3.01 3.01 3.01 0 0 0-3.014-3.009 3.01 3.01 0 0 0-3.014 3.009c0 1.663 1.35 3.01 3.014 3.01M150.986 6.02A3.01 3.01 0 0 0 154 3.01 3.01 3.01 0 0 0 150.986 0a3.01 3.01 0 0 0-3.014 3.01 3.01 3.01 0 0 0 3.014 3.01M150.986 31.673a3.01 3.01 0 0 0 3.014-3.01 3.01 3.01 0 0 0-3.014-3.01 3.01 3.01 0 0 0-3.014 3.01 3.01 3.01 0 0 0 3.014 3.01M150.986 57.47A3.01 3.01 0 0 0 154 54.46a3.01 3.01 0 0 0-3.014-3.01 3.01 3.01 0 0 0-3.014 3.01 3.01 3.01 0 0 0 3.014 3.01M150.986 83.266a3.01 3.01 0 0 0 3.014-3.01 3.01 3.01 0 0 0-3.014-3.009 3.01 3.01 0 0 0-3.014 3.01 3.01 3.01 0 0 0 3.014 3.01M150.986 108.203a3.01 3.01 0 0 0 3.014-3.009 3.01 3.01 0 0 0-3.014-3.01 3.01 3.01 0 0 0-3.014 3.01 3.01 3.01 0 0 0 3.014 3.009M150.986 134a3.01 3.01 0 0 0 3.014-3.01 3.01 3.01 0 0 0-3.014-3.009 3.01 3.01 0 0 0-3.014 3.009 3.01 3.01 0 0 0 3.014 3.01M120.846 6.02a3.01 3.01 0 0 0 3.014-3.01A3.01 3.01 0 0 0 120.846 0a3.01 3.01 0 0 0-3.014 3.01c0 1.662 1.35 3.01 3.014 3.01M120.846 31.673a3.01 3.01 0 0 0 3.014-3.01 3.01 3.01 0 0 0-3.014-3.01 3.01 3.01 0 0 0-3.014 3.01c0 1.662 1.35 3.01 3.014 3.01M120.846 57.47a3.01 3.01 0 0 0 3.014-3.01 3.01 3.01 0 0 0-3.014-3.01 3.01 3.01 0 0 0-3.014 3.01c0 1.662 1.35 3.01 3.014 3.01M120.846 83.266a3.01 3.01 0 0 0 3.014-3.01 3.01 3.01 0 0 0-3.014-3.009 3.01 3.01 0 0 0-3.014 3.01c0 1.662 1.35 3.01 3.014 3.01M120.846 108.203a3.01 3.01 0 0 0 3.014-3.009 3.01 3.01 0 0 0-3.014-3.01 3.01 3.01 0 0 0-3.014 3.01 3.01 3.01 0 0 0 3.014 3.009M120.846 134a3.01 3.01 0 0 0 3.014-3.01 3.01 3.01 0 0 0-3.014-3.009 3.01 3.01 0 0 0-3.014 3.009c0 1.663 1.35 3.01 3.014 3.01"/></svg>