<svg xmlns="http://www.w3.org/2000/svg" width="1290" height="946" fill="none"><path fill="#DFF1F4" d="M514.664 873.775c169.123 0 306.224-137.101 306.224-306.224S683.787 261.327 514.664 261.327 208.439 398.428 208.439 567.551s137.102 306.224 306.225 306.224"/><path fill="#DFF1F4" d="M699.142 689.291c169.123 0 306.228-137.101 306.228-306.224S868.265 76.842 699.142 76.842 392.918 213.944 392.918 383.067s137.101 306.224 306.224 306.224"/><path fill="#83A9FF" d="M647.471 526.641c45.736-55.945 122.294-38.707 186.451 23.188 34.009 32.81 37.67 40.387 37.67 40.387l-55.343 94.764-146.063-99.849z"/><path fill="#6F97DD" d="M844.125 637.247 741.984 532.192l14.981 112.261 59.284 40.528z"/><path fill="#6F97DD" d="M869.544 684.607c28.623-18.885 36.518-57.398 17.634-86.022-18.885-28.624-57.398-36.519-86.022-17.634s-36.519 57.398-17.634 86.022c18.885 28.623 57.398 36.518 86.022 17.634"/><path fill="#A56F62" d="M712.836 509.835s67.331 144.453 75.512 155.201c8.181 10.746 51.684 26.924 73.996 23.722 22.309-3.202 23.369-74.66 18.683-83.437-4.685-8.779-126.966-120.438-126.966-120.438s-45.239-14.81-41.225 24.952"/><path fill="#83A9FF" d="M537.727 538.958c-29.706-65.875-88.056-77.834-166.042-34.644-41.34 22.894-46.835 29.265-46.835 29.265l28.943 105.857z"/><path fill="#6F97DD" d="M372.614 641.498c31.683-13.124 46.728-49.446 33.604-81.129s-49.446-46.728-81.129-33.604-46.728 49.446-33.604 81.129 49.446 46.728 81.129 33.604"/><path fill="#83A9FF" d="M704.638 860.256c.06 10.75-5.996 20.668-15.693 25.303-21.469 10.26-52.651 21.495-91.353 24.209-54.478 3.823-98.235-11.03-124.362-23.046-9.843-4.529-16.1-14.42-16.157-25.254-.523-97.696-1.046-187.224-1.571-284.335-.303-56.089 44.926-101.818 101.017-102.114l51.174-.271c52.376-.278 95.063 41.958 95.341 94.334z"/><path fill="#6F97DD" d="M457.074 861.473c.057 10.833 6.314 20.727 16.157 25.253 26.127 12.017 69.884 26.867 124.362 23.047 38.704-2.716 69.884-13.95 91.353-24.21 9.699-4.634 15.753-14.554 15.693-25.302l-.589-106.991-247.091 86.901z"/><path fill="#A56F62" d="M537.202 479.996c-7.847 19.114 11.688 45.244 43.636 58.362 31.947 13.12 64.208 8.26 72.058-10.854 7.85-19.112-11.686-45.244-43.633-58.362-31.948-13.12-64.211-8.26-72.061 10.854"/><path fill="#A56F62" d="m662.145 195.803-4.443-.971c-28.491-6.234-59.481 24.791-69.218 69.291l-48.269 220.628 107.618 23.545 48.272-220.625c9.734-44.505-5.469-85.633-33.96-91.868"/><path fill="#8C5C53" d="m661.591 203.873-4.442-.971c-28.492-6.235-58.905 22.159-67.934 63.418l-32.978 150.736c-6.501 29.717 12.319 59.08 42.038 65.581 29.718 6.504 59.079-12.317 65.581-42.035l32.98-150.735c9.024-41.26-6.756-79.76-35.245-85.994"/><path fill="#D88D87" d="M640.576 400.721c-1.973 4.849-12.961 4.959-24.545.245-11.582-4.714-19.372-12.465-17.399-17.316 1.973-4.848 12.963-4.956 24.545-.244 11.582 4.716 19.372 12.466 17.399 17.315"/><path fill="#252538" d="M648.753 95.788c-8.671-.936-16.872-11.997-25.342-11.708-8.682.296-16.095 11.922-24.468 13.427-8.521 1.531-19.516-6.764-27.613-4.065-8.188 2.728-12.008 15.976-19.659 19.809-7.698 3.86-20.593-1-27.637 3.895-7.058 4.902-7.01 18.684-13.302 24.537-6.28 5.839-20.025 4.787-25.436 11.485-5.379 6.656-1.464 19.864-5.873 27.281-4.361 7.336-17.847 10.201-21.158 18.199-3.255 7.861 4.24 19.412 2.099 27.831-2.088 8.214-14.217 14.767-15.153 23.438-.933 8.671 9.521 17.659 9.81 26.129.296 8.682-9.487 18.373-7.982 26.746 1.531 8.521 14.097 14.195 16.794 22.294 2.728 8.188-3.913 20.258-.077 27.909 3.86 7.698 17.512 9.598 22.405 16.642 4.901 7.058 1.915 20.514 7.766 26.806 5.839 6.28 19.474 4.281 26.169 9.692 6.656 5.379 7.568 19.134 14.985 23.546 7.336 4.361 19.845-1.399 27.841 1.911 7.861 3.255 12.625 16.192 21.043 18.333 8.214 2.088 18.582-6.974 27.253-6.038s16.869 11.997 25.34 11.708c8.682-.296 16.095-11.922 24.468-13.425 8.518-1.532 19.513 6.764 27.613 4.065 8.187-2.728 12.01-15.974 19.659-19.811 7.698-3.86 20.59.999 27.635-3.893 7.058-4.902 7.009-18.686 13.301-24.537 6.281-5.839 20.025-4.787 25.437-11.485 5.378-6.658 1.463-19.864 5.872-27.284 4.363-7.336 17.85-10.2 21.16-18.196 3.256-7.861-4.239-19.414-2.099-27.831 2.09-8.214 14.22-14.767 15.153-23.438.936-8.671-9.518-17.66-9.807-26.13-.296-8.682 9.487-18.372 7.982-26.745-1.532-8.519-14.098-14.195-16.795-22.292-2.727-8.188 3.911-20.258.075-27.909-3.857-7.698-17.511-9.598-22.404-16.642-4.902-7.058-1.916-20.514-7.768-26.808-5.84-6.281-19.474-4.281-26.17-9.693-6.658-5.378-7.568-19.136-14.985-23.545-7.336-4.361-19.845 1.401-27.84-1.911-7.861-3.256-12.626-16.192-21.043-18.333-8.21-2.09-18.578 6.972-27.249 6.036"/><path fill="#252538" d="m732.703 331.814-209.408-22.576 2.322-21.54c6.234-57.825 58.165-99.649 115.991-93.414 57.828 6.234 99.649 58.165 93.414 115.993z"/><path fill="#8C5C53" d="m733.27 355.712-216.095-23.299c-9.454-1.019-16.291-9.509-15.272-18.964s9.51-16.293 18.964-15.274l216.095 23.299c9.455 1.019 16.292 9.509 15.272 18.964-1.02 9.456-9.51 16.293-18.964 15.274"/><path fill="#AA635F" d="M510.864 314.424a8.204 8.204 0 0 1 9.035-7.278l216.095 23.298a8.204 8.204 0 0 1 7.276 9.038 8.203 8.203 0 0 1-9.035 7.276l-216.094-23.299a8.203 8.203 0 0 1-7.277-9.035"/><path fill="#A56F62" d="M611.26 473.568c-52.774-5.69-90.942-53.083-85.251-105.857l9.779-90.709c5.456-50.593 50.892-87.186 101.485-81.733l7.892.852c50.596 5.455 87.187 50.891 81.733 101.487l-9.778 90.709c-5.692 52.772-53.086 90.94-105.86 85.251"/><path fill="#fff" d="M601.414 395.944c10.271 2.143 24.576 5.758 37.915 11.315 8.775 3.655 16.567-5.429 13.169-14.806-2.792-7.702-11.119-14.374-21.992-17.913-12.167-3.962-26.415.953-31.939 4.773-7.817 5.409-6.309 14.722 2.847 16.631"/><path fill="#252538" d="m654.086 194.085-24.623-2.655c-51.026-5.502-96.852 31.403-102.354 82.431l-.755 6.994a28 28 0 0 0-.148 2.189c-.379 13.965 20.69 14.938 22.189 1.05l.364-3.37c2.646-24.534 24.68-42.282 49.216-39.636l76.291 8.225c24.537 2.646 42.28 24.68 39.636 49.215l-.364 3.37c-1.498 13.888 19.295 17.428 21.902 3.703a29 29 0 0 0 .322-2.172l.755-6.994c5.501-51.024-31.405-96.848-82.431-102.35"/><path fill="#8C5C53" d="m603.348 303.745-21.114-2.276a8.754 8.754 0 0 0-9.64 7.764 8.75 8.75 0 0 0 7.764 9.64l21.114 2.278a8.75 8.75 0 0 0 9.64-7.764 8.753 8.753 0 0 0-7.764-9.642M698.236 313.979l-21.113-2.275a8.75 8.75 0 0 0-9.64 7.764c-.519 4.806 2.959 9.121 7.764 9.64l21.113 2.275a8.75 8.75 0 0 0 9.64-7.762 8.755 8.755 0 0 0-7.764-9.642"/><path fill="#252538" d="M597.906 300.648c-6.177-.666-11.723 3.803-12.387 9.978-.666 6.175 3.8 11.723 9.977 12.389 6.178.667 11.724-3.802 12.39-9.977.664-6.175-3.802-11.723-9.98-12.39M682.641 309.781c-6.177-.667-11.723 3.802-12.39 9.977s3.803 11.724 9.978 12.39 11.723-3.802 12.389-9.977c.667-6.175-3.8-11.724-9.977-12.39M704.545 292.834l-15.483-13.345a8.107 8.107 0 0 0-11.439.847 8.11 8.11 0 0 0 .848 11.441l15.483 13.345a8.115 8.115 0 0 0 11.441-.848 8.116 8.116 0 0 0-.85-11.44M600.436 270.631l-19.2 7.016a8.112 8.112 0 1 0 5.568 15.237l19.2-7.016a8.115 8.115 0 0 0 4.835-10.404 8.114 8.114 0 0 0-10.403-4.833"/><path fill="#8C5C53" d="M637.004 430.653c-2.071 4.659-12.77 4.427-23.899-.516-11.13-4.944-18.474-12.728-16.404-17.386 2.07-4.659 12.769-4.427 23.896.516 11.132 4.944 18.474 12.727 16.407 17.386"/><path fill="#D88D87" d="M635.982 363.064c-8.79-.949-15.146-8.841-14.199-17.631l2.781-25.808c.949-8.79 8.84-15.146 17.631-14.199 8.79.946 15.146 8.841 14.199 17.631l-2.783 25.807c-.947 8.791-8.841 15.149-17.629 14.2"/><path fill="#F79C97" d="M645.409 354.935a4.23 4.23 0 0 1-3.752-4.657l3.222-29.873a4.23 4.23 0 0 1 8.409.908l-3.22 29.872a4.23 4.23 0 0 1-4.659 3.75"/><path fill="#A56F62" d="M498.999 497.012s-102.41 122.115-113.093 130.38c-10.684 8.263-56.892 12.637-77.613 3.772-20.723-8.866-3.26-78.165 3.538-85.43 6.797-7.268 153.802-83.488 153.802-83.488s47.532-2.604 33.366 34.766"/><path fill="#8C5C53" d="M515.539 343.418c-5.978 1.49-8.594 10.644-11.023 17.183s-22.045 74.918-22.045 74.918h22.232z"/><path fill="#A56F62" d="M498.998 496.998c16.728-10.849 27.306-21.497 25.66-41.675-1.437-17.605 2.01-93.238 2.913-112.237.156-3.309-2.443-6.151-5.756-6.16-2.858-.007-6.164 1.357-8.519 6.493-5.056 11.017-13.824 62.4-21.111 73.543-7.285 11.143-40.349 57.417-40.349 57.417z"/><path fill="#8C5C53" d="M517.768 354.708c-.764 3.46-14.541 66.741-14.541 66.741l2.244.49s13.773-63.274 14.539-66.735c.36-1.629 2.231-8.761 7.49-10.626l.071-1.488a6 6 0 0 0-.053-.953c-6.983 1.79-9.318 10.611-9.75 12.571M734.957 361.449c5.449 2.878 5.796 12.392 6.588 19.322s3.465 78.017 3.465 78.017l-21.586-5.323z"/><path fill="#A56F62" d="M714.242 514.519c-13.643-14.537-21.365-27.41-14.936-46.606 5.61-16.748 20.372-91.006 24.046-109.668.64-3.248 3.847-5.387 7.062-4.601 2.777.677 5.659 2.794 6.718 8.342 2.271 11.908-1.518 63.895 2.889 76.458 4.405 12.564 25.428 65.409 25.428 65.409z"/><path fill="#8C5C53" d="M730.089 371.871c-.087 3.543-1.863 68.282-1.863 68.282l-2.295-.064s1.776-64.731 1.865-68.273c.039-1.668-.069-9.041-4.728-12.111.1-.508.201-1.013.287-1.459.062-.318.17-.618.278-.914 6.35 3.41 6.504 12.533 6.456 14.539"/><path fill="#A94BBC" d="M1171.88 877.273h-59.95l-12.15-62.363h84.26z"/><path fill="#843C96" d="m1105.28 843.126 75.25-10.207 3.51-18.009h-84.26z"/><path fill="#A7E070" d="M1141.37 810.225c36.11-50.075.46-79.891 0-80.275v-.008l-.01.004v-.004.008c-.47.382-36.12 30.198 0 80.275v.015-.006l.01.006z"/><path fill="#75B75A" d="M1138.68 816.42c.45-68.516 42.99-73.442 78.37-48.812z"/><path fill="#A7E070" d="M1144.5 818.205c0-43.887 49.71-58.664 75.24-8.508z"/><path fill="#75B75A" d="M1144.05 816.42c-.45-68.516-42.99-73.442-78.37-48.812z"/><path fill="#A7E070" d="M1138.23 818.205c0-43.887-49.71-58.664-75.23-8.508z"/><path fill="#A94BBC" d="M1189.03 812.395h-95.87v14.312h95.87z"/><path fill="#EDCB3A" d="m1172.72 542.871 16.65-52-39.9 67.223 22.31-3.924-16.24 56.764 39.49-71.985zM1216.81 569.285l42.94-33.726-70.73 33.289 20.68 9.262-45.28 37.893 73.07-37.456zM1290 612.678l-77.19-12.346 11.86 19.3-58.75 5.793 81.47 10.222-11.86-19.297z"/><path fill="#3C3C5B" d="m1077.56 860.608-335.585-.047 70.078-235.963h335.237z"/><path fill="#252538" d="M1077.53 860.528H586.771v16.761h490.759z"/><path fill="#6D6DA0" d="M1077.54 860.528H741.988v16.761h335.552z"/><path fill="#252538" d="M812.054 624.598h-12.74l-71.072 236.681 13.747-.755z"/><path fill="#6D6DA0" d="M979.116 763.44c-5.491 16.863-21.645 26.721-36.083 22.021-14.438-4.701-21.692-22.182-16.201-39.045s21.646-26.722 36.083-22.021c14.438 4.701 21.69 22.182 16.201 39.045"/><path fill="#EDCB3A" d="M1208.95 877.473H0v36.692h1208.95z"/><path fill="#EDCB3A" d="M1146.83 913.332H62.133v32.658H1146.83z"/><path fill="#E59F01" d="m62.133 922.138 1084.697 15.278v-24.084H62.133z"/><path fill="#890C25" d="M381.636 213.858c11.838-94.347-55.048-180.427-149.394-192.265C137.895 9.754 51.815 76.64 39.977 170.987 28.138 265.334 95.024 351.414 189.37 363.252c94.346 11.839 180.426-55.047 192.265-149.394"/><path fill="#FF5050" d="M336.84 289.268h66.748l-44.123-44.123z"/><path stroke="#fff" stroke-miterlimit="10" stroke-width="2" d="m162.085 291.339 183.624-117.962-253.102-71.961 126.551 189.923 21.507-186.615L83.508 223.121l244.005-98.546-52.109 167.145s-145.577-48.038-143.095-48.863c2.481-.827 46.319-194.376 46.319-194.376l68.653 271.806"/><path fill="#A94BBC" d="M223.502 720.565h55.542c10.112 0 18.308-8.196 18.308-18.308V596.051h-92.161v106.206c0 10.112 8.199 18.308 18.311 18.308"/><path fill="#843C96" d="M205.447 704.346c1.437 9.185 9.362 16.219 18.949 16.219h53.752c10.606 0 19.204-8.598 19.204-19.205v-28.504z"/><path fill="#A94BBC" d="M165.732 670.318v-36.275c0-14.058 11.437-25.492 25.49-25.492h29.904v87.257h-29.904c-14.053 0-25.49-11.436-25.49-25.49m42.157-48.532h-16.667c-6.757 0-12.255 5.5-12.255 12.257v36.275c0 6.758 5.498 12.253 12.255 12.253h16.667z"/><path fill="#fff" d="M270.368 585.139a3.473 3.473 0 0 1-3.472-3.472c0-10.114 5.509-15.23 10.371-19.743 4.374-4.061 8.15-7.565 8.15-14.651 0-7.091-3.778-10.603-8.152-14.668-4.86-4.517-10.369-9.635-10.369-19.749 0-10.119 5.509-15.237 10.369-19.755 4.371-4.065 8.15-7.574 8.15-14.664a3.47 3.47 0 1 1 6.943 0c0 10.116-5.509 15.234-10.368 19.751-4.375 4.066-8.153 7.575-8.153 14.668 0 7.088 3.778 10.599 8.15 14.665 4.86 4.517 10.368 9.635 10.368 19.754 0 10.112-5.508 15.227-10.368 19.738-4.374 4.063-8.15 7.57-8.15 14.657a3.47 3.47 0 0 1-3.469 3.469M242.014 585.139a3.47 3.47 0 0 1-3.471-3.472c0-10.114 5.508-15.23 10.37-19.743 4.374-4.061 8.15-7.565 8.15-14.651 0-7.091-3.778-10.603-8.152-14.668-4.86-4.517-10.368-9.635-10.368-19.749 0-10.119 5.508-15.237 10.368-19.755 4.374-4.065 8.15-7.574 8.15-14.664a3.471 3.471 0 1 1 6.943 0c0 10.116-5.508 15.234-10.368 19.751-4.374 4.066-8.152 7.575-8.152 14.668 0 7.088 3.778 10.599 8.15 14.665 4.859 4.517 10.368 9.635 10.368 19.754 0 10.112-5.509 15.227-10.368 19.738-4.374 4.063-8.15 7.57-8.15 14.657a3.47 3.47 0 0 1-3.47 3.469M213.661 585.139a3.473 3.473 0 0 1-3.472-3.472c0-10.114 5.509-15.23 10.371-19.743 4.372-4.061 8.15-7.565 8.15-14.651 0-7.091-3.778-10.603-8.152-14.668-4.86-4.517-10.366-9.635-10.366-19.749 0-10.119 5.508-15.237 10.368-19.755 4.374-4.065 8.15-7.574 8.15-14.664a3.471 3.471 0 1 1 6.943 0c0 10.116-5.509 15.234-10.366 19.751-4.374 4.066-8.152 7.575-8.152 14.668 0 7.088 3.778 10.599 8.15 14.665 4.859 4.517 10.368 9.635 10.368 19.754 0 10.112-5.509 15.227-10.368 19.738-4.372 4.063-8.15 7.57-8.15 14.657a3.474 3.474 0 0 1-3.474 3.469"/><path fill="#A7E070" d="M218.959 877.822H79.027c-13.619 0-24.66-11.041-24.66-24.66v-3.154c0-13.619 11.041-24.66 24.66-24.66H218.96a3.52 3.52 0 0 1 3.52 3.52v45.429a3.52 3.52 0 0 1-3.52 3.525"/><path fill="#75B75A" d="M230.584 871.687v-40.206h137.43v-6.133H196.302c-14.49 0-26.236 11.747-26.236 26.236s11.746 26.236 26.236 26.236h171.712v-6.133z"/><path fill="#fff" d="M361.234 871.686v-40.205H198.238c-11.103 0-20.103 9-20.103 20.103s9 20.102 20.103 20.102z"/><path fill="#DFF1F4" d="M178.135 851.591c0 4.763 1.659 9.137 4.427 12.582 1.26-3.445 2.015-7.817 2.015-12.582 0-4.762-.755-9.136-2.015-12.579a20 20 0 0 0-4.427 12.579"/><path fill="url(#a)" d="M361.236 848.931v-17.45H198.239c-6.389 0-12.072 2.99-15.753 7.638 14.946-6.27 138.566-2.598 178.75 9.812" opacity=".94"/><path fill="#83A9FF" d="M218.959 772.884H79.027c-13.619 0-24.66-11.041-24.66-24.66v-3.154c0-13.618 11.041-24.66 24.66-24.66H218.96a3.52 3.52 0 0 1 3.52 3.52v45.43a3.52 3.52 0 0 1-3.52 3.524"/><path fill="#6F97DD" d="M230.584 766.749v-40.206h137.43v-6.133H196.302c-14.49 0-26.236 11.746-26.236 26.236s11.746 26.236 26.236 26.236h171.712v-6.133z"/><path fill="#fff" d="M361.234 766.749v-40.206H198.238c-11.103 0-20.103 9-20.103 20.103s9 20.103 20.103 20.103z"/><path fill="#DFF1F4" d="M178.135 746.654a20.02 20.02 0 0 0 4.427 12.582c1.26-3.445 2.015-7.817 2.015-12.582 0-4.763-.755-9.137-2.015-12.58a20 20 0 0 0-4.427 12.58"/><path fill="url(#b)" d="M361.236 743.993v-17.45H198.239c-6.389 0-12.072 2.991-15.753 7.638 14.946-6.27 138.566-2.597 178.75 9.812" opacity=".94"/><path fill="#A94BBC" d="M203.422 825.369h139.932c13.619 0 24.66-11.042 24.66-24.66v-3.154c0-13.619-11.041-24.66-24.66-24.66H203.422a3.52 3.52 0 0 0-3.52 3.52v45.429a3.52 3.52 0 0 0 3.52 3.525"/><path fill="#843C96" d="M191.796 819.233v-40.205H54.367v-6.133H226.08c14.49 0 26.235 11.745 26.235 26.236 0 14.49-11.747 26.235-26.235 26.235H54.367v-6.133z"/><path fill="#fff" d="M61.143 819.233v-40.205H224.14c11.103 0 20.103 8.999 20.103 20.102s-9 20.103-20.103 20.103z"/><path fill="#DFF1F4" d="M244.247 799.136c0 4.763-1.66 9.137-4.427 12.582-1.261-3.445-2.015-7.817-2.015-12.58 0-4.762.754-9.136 2.015-12.579a20 20 0 0 1 4.427 12.577"/><path fill="url(#c)" d="M61.143 796.478v-17.45H224.14c6.389 0 12.072 2.99 15.753 7.638-14.945-6.27-138.568-2.598-178.751 9.812" opacity=".94"/><path fill="#890C25" d="M1022.92 324.949H870.959v151.964h151.961z"/><path fill="#FF5050" d="m957.689 446.036-23.906 23.906 23.906 23.905 23.905-23.905z"/><path fill="#fff" d="M970.951 452.52h-85.92v5.943h85.92zM919.903 435.614h-34.872v5.943h34.872zM970.951 418.723h-85.92v5.943h85.92zM919.903 401.832h-34.872v5.943h34.872zM991.91 384.934H885.031v5.943H991.91zM913.381 368.043h-28.35v5.944h28.35zM970.951 351.153h-85.92v5.943h85.92z"/><path fill="#83A9FF" d="M1107.42 490.824h-103.19v103.198h103.19z"/><path fill="#83A9FF" d="m1063.12 573.067-16.23 16.234 16.23 16.234 16.23-16.234z"/><path fill="#fff" d="M1080.42 578.543h-65.05v4.5h65.05zM1041.77 565.754h-26.4v4.5h26.4zM1080.42 552.965h-65.05v4.5h65.05zM1041.77 540.176h-26.4v4.5h26.4zM1096.29 527.379h-80.92v4.5h80.92zM1036.83 514.59h-21.46v4.5h21.46zM1080.42 501.801h-65.05v4.5h65.05z"/><path fill="#75B75A" d="M1155.18 132.621H980.256v174.927h174.924z"/><path fill="#75B75A" d="m1080.09 271.994-27.52 27.518 27.52 27.518 27.52-27.518z"/><path fill="#fff" d="M1107.17 278.387h-103.96v7.192h103.96zM1045.4 257.942h-42.19v7.192h42.19zM1107.17 237.504h-103.96v7.192h103.96zM1045.4 217.067h-42.19v7.192h42.19zM1132.53 196.614h-129.32v7.192h129.32zM1037.51 176.176h-34.3v7.192h34.3zM1107.17 155.739h-103.96v7.192h103.96z"/><defs><linearGradient id="a" x1="266.608" x2="284.584" y1="881.542" y2="753.14" gradientUnits="userSpaceOnUse"><stop stop-color="#9D9DCF" stop-opacity="0"/><stop offset="1" stop-color="#9D9DCF"/></linearGradient><linearGradient id="b" x1="266.608" x2="284.584" y1="776.604" y2="648.204" gradientUnits="userSpaceOnUse"><stop stop-color="#9D9DCF" stop-opacity="0"/><stop offset="1" stop-color="#9D9DCF"/></linearGradient><linearGradient id="c" x1="155.771" x2="137.795" y1="829.089" y2="700.689" gradientUnits="userSpaceOnUse"><stop stop-color="#9D9DCF" stop-opacity="0"/><stop offset="1" stop-color="#9D9DCF"/></linearGradient></defs></svg>